# xmcd CD database file
#
# Track frame offsets:
#	150
#	13830
#	26647
#	42548
#	55213
#	69249
#	85472
#	100128
#	114777
#	131148
#	143068
#	162646
#	188638
#	203892
#	224199
#	242681
#	262210
#	284263
#	297192
#	309974
#
# Disc length: 4345 seconds
#
# Revision: 0
# Processed by: cddbd v1.5.2PL0 Copyright (c) Steve Scherf et al.
# Submitted via: CDex 1.70beta2
#
DISCID=3510f714
DTITLE=Rick Nelson - The last time around CD 5
DYEAR=2010
DGENRE=Country
TTITLE0=You can't dance
TTITLE1=Love is something you can't buy
TTITLE2=I wanne move with you
TTITLE3=Five minutes more
TTITLE4=Gimme little sign
TTITLE5=Stay young
TTITLE6=Wings
TTITLE7=It's another day
TTITLE8=One by one
TTITLE9=Change your mind
TTITLE10=Everyday I have to cry some
TTITLE11=Love you so
TTITLE12=Chump change romeo
TTITLE13=What is success
TTITLE14=Carl of the jungle
TTITLE15=No words of love
TTITLE16=New Delhi freight train
TTITLE17=Mama, you've been on my mind
TTITLE18=Getting it on
TTITLE19=Conversation
EXTD=YEAR: 2010
EXTT0=
EXTT1=
EXTT2=
EXTT3=
EXTT4=
EXTT5=
EXTT6=
EXTT7=
EXTT8=
EXTT9=
EXTT10=
EXTT11=
EXTT12=
EXTT13=
EXTT14=
EXTT15=
EXTT16=
EXTT17=
EXTT18=
EXTT19=
PLAYORDER=
